<svg xmlns="http://www.w3.org/2000/svg" viewBox="0 0 138.61 40.72"><defs><style>.cls-1{fill:#fff;}</style></defs><g id="Layer_2" data-name="Layer 2"><g id="Layer_1-2" data-name="Layer 1"><path class="cls-1" d="M5.43,31.23l1.13,3.82c.23.79.43,1.47.58,2.11h0c.17-.62.4-1.33.67-2.1l1.35-3.83h.63L11.1,35c.28.82.49,1.51.66,2.14h0c.14-.63.35-1.31.6-2.12l1.21-3.81h.68L12,38h-.58L10.2,34.21a21.11,21.11,0,0,1-.7-2.29h0c-.2.79-.45,1.53-.73,2.31L7.4,38H6.81L4.74,31.23Z"/><path class="cls-1" d="M15.67,34.53c0,2.14,1.17,3,2.56,3a3.85,3.85,0,0,0,1.87-.38l.17.53a4.53,4.53,0,0,1-2.12.43A3.09,3.09,0,0,1,15,34.72c0-2.24,1.29-3.65,3-3.65,2.2,0,2.62,2.07,2.62,3a1.68,1.68,0,0,1,0,.42ZM20,34a2.06,2.06,0,0,0-2-2.36A2.4,2.4,0,0,0,15.71,34Z"/><path class="cls-1" d="M22.3,38c0-.47.06-1.07.06-1.56V28H23v4.47h0a2.6,2.6,0,0,1,2.46-1.41c1.7,0,2.88,1.43,2.88,3.45,0,2.4-1.53,3.59-3,3.59A2.57,2.57,0,0,1,23,36.74h0L22.9,38ZM23,35.36a2.05,2.05,0,0,0,.06.49,2.27,2.27,0,0,0,2.22,1.7c1.53,0,2.41-1.26,2.41-3,0-1.55-.84-2.91-2.36-2.91a2.37,2.37,0,0,0-2.24,1.8A1.91,1.91,0,0,0,23,34Z"/><path class="cls-1" d="M29.81,37.07a2.87,2.87,0,0,0,1.51.46c1.06,0,1.57-.58,1.57-1.28s-.45-1.13-1.42-1.51-1.7-1-1.7-1.85a1.88,1.88,0,0,1,2.07-1.82,2.66,2.66,0,0,1,1.49.43l-.27.54a2.26,2.26,0,0,0-1.33-.4,1.18,1.18,0,0,0-1.31,1.16c0,.7.48,1,1.39,1.38,1.09.43,1.73,1,1.73,2a2,2,0,0,1-2.26,1.93,3.27,3.27,0,0,1-1.71-.47Z"/><path class="cls-1" d="M36.18,29.3a.54.54,0,1,1-1.08,0,.57.57,0,0,1,.55-.58A.55.55,0,0,1,36.18,29.3ZM35.31,38V31.23H36V38Z"/><path class="cls-1" d="M39.16,29.28v1.95h1.92v.54H39.16v4.37c0,.85.27,1.39,1,1.39a2.31,2.31,0,0,0,.76-.11l.08.52a2.43,2.43,0,0,1-.93.16,1.45,1.45,0,0,1-1.16-.48,2.48,2.48,0,0,1-.4-1.6V31.77H37.36v-.54H38.5V29.5Z"/><path class="cls-1" d="M42.58,34.53c0,2.14,1.17,3,2.56,3A3.88,3.88,0,0,0,47,37.14l.17.53a4.53,4.53,0,0,1-2.12.43,3.09,3.09,0,0,1-3.14-3.38c0-2.24,1.29-3.65,3-3.65,2.21,0,2.62,2.07,2.62,3a2.49,2.49,0,0,1,0,.42ZM46.87,34a2.07,2.07,0,0,0-2-2.36A2.41,2.41,0,0,0,42.61,34Z"/><path class="cls-1" d="M57.69,28v8.38c0,.49,0,1.09.06,1.56h-.6l0-1.27h0a2.51,2.51,0,0,1-2.39,1.43c-1.65,0-2.89-1.39-2.89-3.4,0-2.24,1.37-3.64,3-3.64A2.38,2.38,0,0,1,57,32.26h0V28ZM57,33.89a2.48,2.48,0,0,0-.07-.61,2.15,2.15,0,0,0-2.12-1.65c-1.46,0-2.39,1.27-2.39,3,0,1.51.76,2.91,2.36,2.91A2.23,2.23,0,0,0,57,35.79a2,2,0,0,0,.07-.56Z"/><path class="cls-1" d="M60.05,34.53c0,2.14,1.17,3,2.56,3a3.85,3.85,0,0,0,1.87-.38l.17.53a4.53,4.53,0,0,1-2.12.43,3.09,3.09,0,0,1-3.14-3.38c0-2.24,1.29-3.65,3-3.65,2.2,0,2.61,2.07,2.61,3a2.49,2.49,0,0,1,0,.42ZM64.34,34a2.07,2.07,0,0,0-2-2.36A2.4,2.4,0,0,0,60.09,34Z"/><path class="cls-1" d="M66.58,31.23l1.58,4.17c.27.66.48,1.23.66,1.8h0c.18-.56.42-1.15.68-1.8l1.6-4.17h.7L69.1,38h-.59l-2.64-6.72Z"/><path class="cls-1" d="M73.13,34.53c0,2.14,1.17,3,2.55,3a3.85,3.85,0,0,0,1.87-.38l.18.53a4.55,4.55,0,0,1-2.13.43,3.08,3.08,0,0,1-3.13-3.38c0-2.24,1.28-3.65,3-3.65,2.2,0,2.62,2.07,2.62,3a2.49,2.49,0,0,1,0,.42ZM77.41,34a2.06,2.06,0,0,0-2-2.36A2.4,2.4,0,0,0,73.16,34Z"/><path class="cls-1" d="M79.82,28h.66V38h-.66Z"/><path class="cls-1" d="M88.53,34.53a3.26,3.26,0,0,1-3.22,3.58,3.15,3.15,0,0,1-3.08-3.47,3.25,3.25,0,0,1,3.18-3.57A3.14,3.14,0,0,1,88.53,34.53Zm-5.63.08a2.68,2.68,0,0,0,2.45,2.94,2.72,2.72,0,0,0,2.5-3c0-1.23-.69-2.93-2.46-2.93S82.9,33.16,82.9,34.61Z"/><path class="cls-1" d="M90.23,33.37c0-.84,0-1.5-.06-2.14h.64l0,1.27h0a2.65,2.65,0,0,1,2.48-1.43c1.72,0,2.89,1.43,2.89,3.41,0,2.4-1.43,3.63-3.06,3.63a2.56,2.56,0,0,1-2.28-1.25h0v3.86h-.66Zm.66,1.93a2.35,2.35,0,0,0,.06.54,2.27,2.27,0,0,0,2.21,1.71c1.55,0,2.43-1.25,2.43-3,0-1.51-.85-2.87-2.37-2.87A2.34,2.34,0,0,0,91,33.42a2.84,2.84,0,0,0-.1.57Z"/><path class="cls-1" d="M98.06,34.53c0,2.14,1.17,3,2.56,3a3.88,3.88,0,0,0,1.87-.38l.17.53a4.53,4.53,0,0,1-2.12.43,3.09,3.09,0,0,1-3.14-3.38c0-2.24,1.29-3.65,3-3.65,2.21,0,2.62,2.07,2.62,3a2.49,2.49,0,0,1,0,.42Zm4.29-.54a2.07,2.07,0,0,0-2-2.36A2.4,2.4,0,0,0,98.1,34Z"/><path class="cls-1" d="M104.75,32.83c0-.61,0-1.07-.06-1.6h.62l0,1.19h0a2.33,2.33,0,0,1,2.18-1.35,2,2,0,0,1,1.93,1.47h0a2.79,2.79,0,0,1,.69-.91,2.27,2.27,0,0,1,1.6-.56c.66,0,2.19.37,2.19,2.92v4h-.66v-3.9c0-1.51-.59-2.41-1.75-2.41A2,2,0,0,0,109.83,33a2.22,2.22,0,0,0-.12.66V38h-.66v-4.2c0-1.21-.58-2.11-1.67-2.11a2.08,2.08,0,0,0-1.86,1.52,2.21,2.21,0,0,0-.11.65V38h-.66Z"/><path class="cls-1" d="M116.32,34.53c0,2.14,1.17,3,2.55,3a3.85,3.85,0,0,0,1.87-.38l.17.53a4.46,4.46,0,0,1-2.12.43,3.08,3.08,0,0,1-3.13-3.38c0-2.24,1.28-3.65,3-3.65,2.2,0,2.62,2.07,2.62,3a2.49,2.49,0,0,1,0,.42ZM120.6,34a2.06,2.06,0,0,0-2-2.36A2.4,2.4,0,0,0,116.35,34Z"/><path class="cls-1" d="M123,32.83c0-.61,0-1.07,0-1.6h.62l.05,1.21h0A2.53,2.53,0,0,1,126,31.07c.64,0,2.35.33,2.35,2.85v4h-.67V34c0-1.23-.47-2.34-1.86-2.34a2.17,2.17,0,0,0-2.11,2.15V38H123Z"/><path class="cls-1" d="M131.41,29.28v1.95h1.91v.54h-1.91v4.37c0,.85.26,1.39,1,1.39a2.38,2.38,0,0,0,.77-.11l.08.52a2.47,2.47,0,0,1-.93.16,1.44,1.44,0,0,1-1.16-.48,2.42,2.42,0,0,1-.41-1.6V31.77h-1.13v-.54h1.13V29.5Z"/><path class="cls-1" d="M7.91,19.86,8,14.92l-8-.17,0-.83L8.44,3.06l1,0L9.22,13.91l2.57.06,0,1L9.2,15l-.11,4.93Zm.13-6,.15-6.8c0-.79,0-1.57.12-2.32l-.08,0c-.54.93-.94,1.49-1.35,2.09L1.49,13.69v.06Z"/><path class="cls-1" d="M13.43,20l0-.77L15,17.65C19.8,13.17,21.91,10.85,22,8c0-1.92-.73-3.83-3.57-3.89a5.63,5.63,0,0,0-3.6,1.37l-.47-.85A6.37,6.37,0,0,1,18.66,3a4.42,4.42,0,0,1,4.57,4.74c-.07,3.3-2.52,5.91-6.82,10L15.2,18.92v0l8.25.18,0,1Z"/><path class="cls-1" d="M36.64,3.68l0,.89L28.71,20.31l-1.21,0L35.33,4.75v0l-8.52-.19,0-1Z"/><path class="cls-1" d="M50.07,9.49a3.86,3.86,0,0,0,0,7.72,3.94,3.94,0,0,0,2.8-1.16l3,3.13a8.3,8.3,0,0,1-5.77,2.35,8.18,8.18,0,1,1,5.77-14l-3,3.13A4,4,0,0,0,50.07,9.49Z"/><path class="cls-1" d="M74.27,13.36a8.18,8.18,0,1,1-8.19-8.19A8.17,8.17,0,0,1,74.27,13.36Zm-12,0a3.87,3.87,0,1,0,3.86-3.87A3.83,3.83,0,0,0,62.22,13.36Z"/><path class="cls-1" d="M93.37.41V23H89.06V20.52a7.71,7.71,0,0,1-3.88,1,8.18,8.18,0,0,1,0-16.36,7.71,7.71,0,0,1,3.88,1V.41Zm-12,13a3.87,3.87,0,0,0,7.73,0,3.87,3.87,0,1,0-7.73,0Z"/><path class="cls-1" d="M104.77,19.39h.65v4.29h-.65a8.16,8.16,0,0,1-8.17-8.17V13.34a8.19,8.19,0,0,1,16.37,0v2.82H101A3.91,3.91,0,0,0,104.77,19.39Zm0-9.93a3.88,3.88,0,0,0-3.57,2.38h7.11A3.92,3.92,0,0,0,104.8,9.46Z"/><path class="cls-1" d="M120.52,3.64V6.18a7.67,7.67,0,0,1,3.87-1h.44V9.49h-.44a3.82,3.82,0,0,0-3.87,3.85v7.55H116.2V3.64Z"/><path class="cls-1" d="M138,4.29A3.71,3.71,0,0,0,134.09,8v9.93a8.08,8.08,0,0,1-8.2,8h-.64V21.56h.64a3.72,3.72,0,0,0,3.88-3.67V8A8.08,8.08,0,0,1,138,0h.65V4.29Z"/></g></g></svg>